<svg xmlns="http://www.w3.org/2000/svg" viewBox="0 0 1000 1004"><path d="M798 423l-65 -79c-3,-3 -7,-5 -12,-5 -4,0 -8,2 -11,5l-66 79c-3,4 -4,10 -2,16 3,5 8,8 14,8l15 0 0 183c0,8 7,15 15,15l71 0c8,0 15,-7 15,-15l0 -183 15 0c6,0 11,-3 13,-8 3,-6 2,-12 -2,-16zm-56 9l0 184 -41 0 0 -184c0,-8 -6,-14 -14,-14l34 -42 35 42c-8,0 -14,6 -14,14zm-236 109l-71 0c-8,0 -15,7 -15,15l0 74c0,8 7,15 15,15l71 0c8,0 14,-7 14,-15l0 -74c0,-8 -6,-15 -14,-15zm-15 75l-41 0 0 -45 41 0 0 45zm140 -147l-71 0c-8,0 -14,6 -14,14l0 147c0,8 6,15 14,15l71 0c8,0 15,-7 15,-15l0 -147c0,-8 -7,-14 -15,-14zm-14 147l-42 0 0 -118 42 0 0 118zm323 -237c8,0 15,-7 15,-15l0 -52 30 0c8,0 15,-7 15,-15l0 -61c0,-9 -7,-15 -15,-15l-306 0 0 -34c0,-8 -7,-15 -15,-15l-99 0 0 -89c0,-46 -38,-83 -83,-83l-399 0c-46,0 -83,37 -83,83l0 837c0,46 37,83 83,83l399 0c40,0 75,-30 81,-69l176 0 26 60c2,6 7,9 13,9l59 0c5,0 9,-2 12,-6 3,-4 3,-9 1,-14l-93 -220 228 0c8,0 15,-7 15,-15l0 -62c0,-8 -7,-14 -15,-14l-30 0 0 -249c0,-8 -7,-15 -15,-15 -8,0 -15,7 -15,15l0 249 -628 0 0 -50c0,-8 -7,-14 -15,-14 -8,0 -15,6 -15,14l0 50 -30 0c-8,0 -15,6 -15,14l0 62c0,8 7,15 15,15l228 0 -14 32 -359 0 0 -499c0,-8 -6,-15 -14,-15 -9,0 -15,7 -15,15l0 513c0,9 6,15 15,15l361 0 -64 150 -292 0c-30,0 -54,-24 -54,-54l0 -837c0,-29 24,-54 54,-54l399 0c29,0 53,25 53,54l0 138 -33 0 0 -69c0,-8 -7,-15 -15,-15l-409 0c-9,0 -15,7 -15,15l0 85c0,8 6,15 15,15 8,0 14,-7 14,-15l0 -71 380 0 0 55 -235 0c-8,0 -15,6 -15,15l0 61c0,8 7,15 15,15l30 0 0 252c0,8 7,14 15,14 8,0 15,-6 15,-14l0 -252 628 0 0 52c0,8 7,15 15,15zm-458 595l-16 0 9 -21 8 -19 50 0c-6,23 -27,40 -51,40zm13 -69l14 -33 204 0 14 33 -232 0zm35 -83l5 -12 0 33 -13 0 8 -21zm35 21l0 -80 102 0 33 80 -135 0zm250 131l-27 0 -90 -211 27 0 90 211zm-564 -241l0 -32 720 0 0 32 -720 0zm246 30l27 0 -90 211 -27 0 90 -211zm75 -562l78 0 0 20 -78 0 0 -20zm-321 81l0 -32 720 0 0 32 -720 0zm31 559c-31,0 -57,26 -57,57 0,32 26,57 57,57 32,0 57,-25 57,-57 0,-31 -25,-57 -57,-57zm0 85c-15,0 -27,-12 -27,-28 0,-15 12,-27 27,-27 16,0 28,12 28,27 0,16 -12,28 -28,28zm-45 -856l-26 0c-8,0 -15,6 -15,15 0,8 7,14 15,14l26 0c8,0 15,-6 15,-14 0,-9 -7,-15 -15,-15zm117 0l-74 0c-8,0 -15,6 -15,15 0,8 7,14 15,14l74 0c8,0 14,-6 14,-14 0,-9 -6,-15 -14,-15z"/></svg>