<svg xmlns="http://www.w3.org/2000/svg" viewBox="0 0 1000 1000"><path d="M956 54l-912 0c-24,0 -44,19 -44,44l0 89c0,8 7,15 15,15 8,0 14,-7 14,-15l0 -89c0,-8 7,-15 15,-15l912 0c8,0 15,7 15,15l0 393c0,8 6,14 14,14 8,0 15,-6 15,-14l0 -393c0,-25 -20,-44 -44,-44zm29 481c-8,0 -14,6 -14,14l0 80 -942 0 0 -383c0,-8 -6,-15 -14,-15 -8,0 -15,7 -15,15l0 503c0,24 20,44 44,44l321 0 -8 73 -70 0c-8,0 -15,6 -15,14l0 52c0,8 7,14 15,14l426 0c8,0 15,-6 15,-14l0 -52c0,-8 -7,-14 -15,-14l-70 0 -8 -73 321 0c24,0 44,-20 44,-44l0 -200c0,-8 -7,-14 -15,-14zm-287 360l0 22 -396 0 0 -22 396 0zm-312 -29l8 -73 212 0 8 73 -228 0zm585 -117c0,8 -7,14 -15,14l-912 0c-8,0 -15,-6 -15,-14l0 -91 942 0 0 91zm-205 -360l-11 0c-4,-59 -27,-114 -66,-157 -20,-22 -43,-40 -68,-54l82 0c6,15 20,25 37,25 22,0 40,-18 40,-40 0,-22 -18,-40 -40,-40 -17,0 -32,11 -37,26l-163 0 0 -13c0,-8 -7,-14 -15,-14l-51 0c-8,0 -14,6 -14,14l0 13 -164 0c-5,-15 -20,-26 -37,-26 -22,0 -40,18 -40,40 0,22 18,40 40,40 17,0 31,-10 37,-25l82 0c-25,14 -48,32 -68,54 -39,43 -62,98 -66,157l-10 0c-8,0 -15,6 -15,14l0 51c0,8 7,15 15,15l50 0c8,0 15,-7 15,-15l0 -51c0,-8 -7,-14 -15,-14l-10 0c3,-51 23,-100 58,-138 34,-37 79,-62 128,-71l0 7c0,8 6,15 14,15l0 0 -56 94c-4,7 -2,16 5,20 7,5 16,2 20,-5l42 -70 0 121c-14,6 -24,19 -24,36 0,21 17,38 39,38 21,0 38,-17 38,-38 0,-17 -10,-30 -24,-36l0 -121 108 181 -50 83 -145 0 -50 -83 35 -59c5,-7 2,-16 -5,-20 -7,-4 -16,-2 -20,5l-39 66c-3,5 -3,11 0,15l45 76c-8,1 -13,7 -13,15l0 64c0,8 6,15 14,15l211 0c8,0 15,-7 15,-15l0 -64c0,-8 -6,-14 -14,-15l45 -76c3,-4 3,-10 0,-15l-126 -212 0 0c8,0 15,-7 15,-15l0 -7c49,9 93,34 127,71 35,38 55,87 58,138l-9 0c-8,0 -15,6 -15,15l0 50c0,8 7,15 15,15l50 0c8,0 15,-7 15,-15l0 -50c0,-9 -7,-15 -15,-15zm-26 -237c6,0 11,5 11,11 0,6 -5,11 -11,11 -6,0 -11,-5 -11,-11 0,-6 5,-11 11,-11zm-481 22c-6,0 -11,-5 -11,-11 0,-6 5,-11 11,-11 6,0 11,5 11,11 0,6 -5,11 -11,11zm11 266l-22 0 0 -22 22 0 0 22zm230 -33c-6,0 -10,-4 -10,-9 0,-6 4,-10 10,-10 5,0 9,4 9,10 0,5 -4,9 -9,9zm10 -243l0 8 -21 0 0 -21 21 0 0 13zm-101 406l0 -35 10 0c0,0 0,0 0,0l161 0c0,0 0,0 1,0l9 0 0 35 -181 0zm343 -130l-22 0 0 -22 22 0 0 22z"/></svg>