<svg xmlns="http://www.w3.org/2000/svg" viewBox="0 0 400 250">
	<path d="M208.1,97.5c1.6,2.2,2.4,4.9,2.4,8c0,4.6-1.8,8.2-5.4,10.8c-3.6,2.5-8.7,3.8-15.5,3.8h-27.8V67.2h26.4
		c6.6,0,11.5,1.3,14.9,3.8s5,5.9,5,10c0,2.5-0.6,4.7-1.7,6.6c-1.2,2-2.9,3.5-5.1,4.8C204.3,93.6,206.5,95.2,208.1,97.5z M178.3,79.6
		v7.8h7.8c3.6,0,5.4-1.3,5.4-3.9s-1.8-3.9-5.4-3.9H178.3z M193.8,103.4c0-2.8-1.8-4.2-5.5-4.2h-10v8.3h10
		C191.9,107.6,193.8,106.2,193.8,103.4z"/>
	<path d="M236.8,106.7h-4.5V120h-16.6V67.2h23.8c4.6,0,8.5,0.8,11.9,2.4s6,3.9,7.8,6.9s2.7,6.5,2.7,10.6
		c0,3.8-0.8,7.1-2.4,9.9s-3.9,5.1-6.9,6.7L263,120h-17.8L236.8,106.7z M243.4,82.6c-1.1-1.1-2.8-1.6-5.1-1.6h-6.1v12.4h6.1
		c2.3,0,3.9-0.5,5.1-1.6c1.1-1.1,1.7-2.6,1.7-4.6C245.1,85.2,244.5,83.6,243.4,82.6z"/>
	<path d="M301,110.8h-18.7L279,120h-17l21.6-52.8H300l21.6,52.8h-17.2L301,110.8z M296.4,98l-4.8-13.3L286.8,98H296.4z" />
	<path d="M323.4,67.2H340V120h-16.6V67.2z"/>
	<path d="M395.9,67.2V120h-13.7l-18.7-24v24h-16.2V67.2H361l18.7,24v-24H395.9z"/>
	<path d="M124.2,132l-20.8,65H79.9l-10.5-34.7L58.3,197H34.8L14,132h22.6l11.3,37l12-37H80l11.3,37.4l12-37.4H124.2z"/>
	<path d="M142.7,194.1c-5.6-2.9-9.9-7-13.1-12.1c-3.2-5.2-4.7-11-4.7-17.5s1.6-12.3,4.7-17.5c3.2-5.2,7.5-9.2,13.1-12.1
		c5.6-2.9,11.9-4.4,18.9-4.4s13.3,1.5,18.9,4.4c5.6,2.9,9.9,7,13.1,12.1c3.2,5.2,4.7,11,4.7,17.5s-1.6,12.3-4.7,17.5
		c-3.2,5.2-7.5,9.2-13.1,12.1c-5.6,2.9-11.9,4.4-18.9,4.4C154.5,198.5,148.2,197,142.7,194.1z M168.9,178.7c2.2-1.3,3.9-3.2,5.2-5.7
		c1.3-2.4,2-5.3,2-8.6s-0.6-6.1-2-8.6c-1.3-2.4-3.1-4.3-5.2-5.7c-2.2-1.3-4.7-2-7.4-2s-5.2,0.7-7.4,2s-3.9,3.2-5.2,5.7
		c-1.3,2.4-2,5.3-2,8.6s0.7,6.1,2,8.6c1.3,2.4,3.1,4.3,5.2,5.7c2.2,1.3,4.7,2,7.4,2S166.7,180.1,168.9,178.7z"/>
	<path d="M233.4,180.6h-5.9V197h-21.9v-65h31.3c6,0,11.2,1,15.7,3s7.9,4.8,10.3,8.5s3.6,8.1,3.6,13
		c0,4.6-1.1,8.7-3.2,12.2s-5.1,6.2-9.1,8.3l13.7,20.1h-23.4L233.4,180.6z M242.2,150.9c-1.5-1.3-3.7-2-6.7-2h-8v15.2h8
		c3,0,5.2-0.7,6.7-2s2.2-3.2,2.2-5.6C244.4,154.1,243.7,152.2,242.2,150.9z"/>
	<path d="M300.6,175.4l-4.9,5.5V197h-21.6v-65h21.6v23.6l21.4-23.6H341l-26,28.6l27.3,36.4h-25.4L300.6,175.4z"/>
	<path d="M353.4,196.7c-5.1-1.2-9.3-2.8-12.6-4.9l7.1-16c3.1,1.8,6.6,3.2,10.4,4.3s7.5,1.6,11.1,1.6
		c3,0,5.2-0.3,6.5-0.9c1.3-0.6,2-1.5,2-2.6c0-1.4-0.9-2.4-2.6-3.1c-1.7-0.7-4.5-1.4-8.4-2.2c-5-1.1-9.2-2.2-12.5-3.4
		s-6.3-3.2-8.7-5.9c-2.5-2.8-3.7-6.5-3.7-11.2c0-4.1,1.1-7.8,3.4-11.1s5.7-6,10.3-7.9c4.6-1.9,10.1-2.9,16.6-2.9
		c4.5,0,8.8,0.5,13.1,1.4c4.3,1,8.1,2.4,11.4,4.2l-6.6,15.9c-6.4-3.2-12.4-4.8-18.1-4.8c-5.6,0-8.5,1.4-8.5,4.1
		c0,1.3,0.8,2.3,2.5,2.9c1.7,0.7,4.4,1.3,8.3,2.1c5,0.9,9.1,2,12.5,3.2s6.4,3.2,8.9,5.9s3.8,6.4,3.8,11.1c0,4.1-1.1,7.8-3.4,11.1
		s-5.7,5.9-10.3,7.9c-4.6,2-10.1,2.9-16.6,2.9C363.8,198.5,358.5,197.9,353.4,196.7z"/>
	<path d="M41.2,234.1h54.6c1.3-0.9,2.2-2.4,2.2-4.1v-1.9c0-2.7-2.2-4.9-4.9-4.9c2.7,0,4.9-2.2,4.9-4.9v-1.5
		c0-2.7-2.2-4.9-4.9-4.9c2.7,0,4.9-2.2,4.9-4.9v-1.5c0-2.7-2.2-4.9-4.9-4.9H43.8c-2.7,0-4.9,2.2-4.9,4.9v1.5c0,2.7,2.2,4.9,4.9,4.9
		c-2.7,0-4.9,2.2-4.9,4.9v1.5c0,2.7,2.2,4.9,4.9,4.9c-2.7,0-4.9,2.2-4.9,4.9v1.9C38.9,231.7,39.8,233.2,41.2,234.1z M51,207.3h35
		c2,0,3.7,1.6,3.7,3.7c0,2-1.6,3.7-3.7,3.7H51c-2,0-3.7-1.6-3.7-3.7C47.3,208.9,49,207.3,51,207.3z M51,219.7h24.1
		c2,0,3.7,1.6,3.7,3.7s-1.6,3.7-3.7,3.7H51c-2,0-3.7-1.6-3.7-3.7S49,219.7,51,219.7z"/>
	<path d="M50.3,237.6c2.8,4.9,9.9,8.4,18.2,8.4s15.4-3.5,18.2-8.4H50.3z"/>
	<path d="M136.8,68.1C133.9,15,86.8,3.4,68.9,3.4l0,0l0,0l0,0C51,3.4,4,15,1.1,68.1v0.1c0,19.5,8.9,34.6,15.3,45.6
		c3.6,6.1,6.7,11.4,6.7,14.8l5.3,0.1c0.1-4.9-3.2-10.5-7.4-17.6c-6.5-11-14.6-24.8-14.6-42.8c2.7-48.9,46-59.6,62.5-59.6l0,0l0,0l0,0
		c16.5,0,59.8,10.7,62.5,59.6c0,18-8.1,31.8-14.6,42.9c-4.2,7.1-7.4,12.7-7.4,17.6l5.3-0.1c0-3.4,3.1-8.7,6.7-14.8
		c6.5-11,15.4-26.1,15.3-45.6L136.8,68.1z"/>
	<path d="M81.5,116.1c-2.5,0-4.6,2.1-4.6,4.6s2.1,4.6,4.6,4.6c2.1,0,3.8-1.3,4.4-3.2c4.4-1.6,10.1-5.9,16.5-15.7
		c4.8-7.2,3.1-11.5-1.5-16.5c-5-5.5-10.4-8.4-14-10.1c-1.7-0.8-4.1-1.7-6.1-0.4c-2.1,1.3-2.3,4.2-2.3,6.2v11.5c0,1,0.8,1.8,1.8,1.8
		s1.8-0.8,1.8-1.8V85.7c0-2.2,0.4-3.1,0.7-3.2c0.1,0,0.6-0.3,2.6,0.6c3.3,1.6,8.3,4.3,12.9,9.3c3.7,4.1,4.7,6.6,1.1,12.1
		c-4.7,7.1-9.6,12-13.9,13.9l0,0C84.6,117,83.1,116.1,81.5,116.1z M86,121.1c0-0.1,0-0.3,0-0.4C86.1,120.9,86.1,121,86,121.1z
		 M85.9,121.9c0-0.1,0-0.1,0-0.2C85.9,121.8,85.9,121.9,85.9,121.9z M86,121.6c0-0.1,0-0.2,0-0.2S86,121.5,86,121.6z M85.9,119.6
		C85.9,119.5,85.9,119.5,85.9,119.6C85.9,119.5,85.9,119.5,85.9,119.6z M86,120.2L86,120.2C86,120.1,86,120.1,86,120.2z"/>
	<path d="M71,75.7v15.2v21.8c0,3.6,1.8,6.8,4.6,8.7c0-0.2,0-0.4,0-0.6c0-1.2,0.4-2.3,1-3.3c-1.3-1.4-2-3.2-2-4.9V90.8
		V76.3v-0.7c0-1.7,0-5.7,0.7-6.3c0,0,0.3,0,0.9,0.3c3.8,1.8,11.6,6,16.8,10.2c1.4,1.1,2.6,2.1,3.8,3c5.1,4.1,7.8,6.4,10.6,5.3
		c2.3-0.9,3-3.7,3.4-6.4c1.5-9.1,1.5-16-0.1-23.1c-0.1-0.4-0.2-0.9-0.3-1.3c1-0.8,1.7-2.1,1.7-3.6c0-2.5-2.1-4.6-4.6-4.6
		s-4.6,2.1-4.6,4.6c0,2.4,1.8,4.3,4.1,4.6c0,0.1,0.1,0.2,0.1,0.3c1.7,6.9,1.7,13.5,0.2,22.6c-0.5,3.3-1.2,3.7-1.2,3.7
		c-0.9,0.2-4.3-2.5-7-4.8c-1.1-0.9-2.4-2-3.8-3c-5.2-4-12.6-8.2-17.5-10.6c-1.7-0.8-3.2-0.9-4.4-0.1C71,67.9,71,71.8,71,75.7z
		 M110.1,57.5c0.1-0.1,0.2-0.1,0.3-0.2C110.3,57.4,110.2,57.5,110.1,57.5z M108.6,58.2c0.1,0,0.2,0,0.2-0.1
		C108.7,58.2,108.6,58.2,108.6,58.2z M109,58.1c0.1,0,0.1-0.1,0.2-0.1C109.1,58,109.1,58.1,109,58.1z M109.4,57.9
		c0.1,0,0.1-0.1,0.2-0.1C109.5,57.9,109.5,57.9,109.4,57.9z M109.8,57.7c0.1,0,0.1-0.1,0.2-0.1C109.9,57.7,109.8,57.7,109.8,57.7z
		 M108,58.3c-0.1,0-0.3,0-0.4,0C107.7,58.3,107.8,58.3,108,58.3z M108.1,58.3c0.1,0,0.2,0,0.3,0C108.3,58.3,108.2,58.3,108.1,58.3z"/>
	<path d="M69,66.2c2.3,0,4.2-1.7,4.5-3.9c1.6-0.6,3.1-1.5,4.4-2.8c0.4-0.4,0.6-0.9,0.5-1.4c0-0.5-0.3-1-0.7-1.3
		c-0.6-0.4-1-0.7-1.5-1c-2.3-1.5-2.3-1.5-2.3-6.4V35.2c0-2.8,1.4-4.5,4.2-5c9.9-1.7,20.7,9.1,25.5,19c0.9-0.8,2.1-1.2,3.4-1.3
		c-3-6.5-7.5-12.1-13-16.1c-4.8-3.4-9.9-5.3-14.3-5.3c-0.8,0-1.6,0.1-2.3,0.2c-4.5,0.8-7.2,4-7.2,8.5v14.2c0,5.9,0.5,7,3.2,8.9
		c-0.3,0.2-0.7,0.4-1,0.5l0,0C71.9,57.7,70.5,57,69,57c-2.5,0-4.6,2.1-4.6,4.6S66.5,66.2,69,66.2z M73.6,62c0-0.1,0-0.3,0-0.4
		c0-0.1,0-0.3,0-0.4c0,0.1,0,0.3,0,0.4C73.6,61.8,73.6,61.9,73.6,62z M73.6,60.8c0,0.1,0,0.2,0,0.3C73.6,61,73.6,60.9,73.6,60.8z
		 M73.4,60.2L73.4,60.2C73.4,60.1,73.4,60.1,73.4,60.2z M73.5,60.6c0-0.1,0-0.1-0.1-0.2C73.5,60.5,73.5,60.5,73.5,60.6z"/>
	<path d="M29.4,88.3c0.9,0.6,2.9,1.3,5.5-0.9l10.7-8.8c13.1-9.7,16.5-9.2,17.2-8.8c0.9,0.5,0.9,3,0.9,4.9
		c0,0.3,0,0.6,0,0.9v15.3v21.8c0,1.5-0.4,3.2-1.3,4.4c-0.8-0.6-1.7-0.9-2.7-0.9c-2.5,0-4.6,2.1-4.6,4.6s2.1,4.6,4.6,4.6
		s4.6-2.1,4.6-4.6c0-0.1,0-0.3,0-0.4c1.9-1.8,3-4.5,3-7.7V90.8V75.6c0-0.3,0-0.6,0-0.9c0-2.9,0.1-6.6-2.8-8.1
		c-3.6-1.8-9.8,0.9-21,9.2c0,0,0,0-0.1,0.1l-10.8,8.8c-0.7,0.6-1.2,0.7-1.2,0.7c-0.4-0.1-2-2.7-1.6-11.8c0.2-4.5,0.8-9.5,1.7-14
		c-0.3,0-0.5,0.1-0.8,0.1c-1,0-1.9-0.2-2.7-0.7C25.7,70.2,24.8,85.3,29.4,88.3z"/>
	<path d="M35,104.3c8,10.3,14.2,15.2,18.9,17.1c0-0.2,0-0.4,0-0.6c0-1.1,0.3-2.1,0.8-3c-4.6-2.2-10.5-7.6-16.9-15.7
		c-0.4-0.5-0.6-1.3-0.4-2.2c0.5-3.8,5.1-9.1,12.2-14.3c5.3-3.8,6.6-3.3,6.6-3.3c0.5,0.4,0.3,2.8,0.3,3.7c0,0.5,0,1,0,1.5v7.2l0,0
		c-1.7,0.7-2.8,2.3-2.8,4.2c0,2.5,2.1,4.6,4.6,4.6s4.6-2.1,4.6-4.6c0-1.9-1.2-3.5-2.8-4.2l0,0v-7.2c0-0.4,0-0.8,0-1.3
		c0.1-2.4,0.3-5.7-2.2-7.1c-2.2-1.2-5.4-0.1-10.4,3.5c-8.1,5.9-13,11.8-13.6,16.7C33.6,101.3,34,103,35,104.3z"/>
	<path d="M30.7,58.3c2.5,0,4.6-2.1,4.6-4.6c0-1.2-0.5-2.4-1.3-3.2l0,0c5.7-14.2,18.6-21.4,26-20.3
		c2.9,0.5,4.4,2.1,4.4,4.9v14.3c0,2.4-1.1,6.3-3.5,6.9c-0.6,0.1-1.1,0.6-1.3,1.3c-0.2,0.6,0,1.3,0.5,1.8c1,1,2.1,1.8,3.2,2.4
		c0,0,0,0,0-0.1c0-2.1,1.1-3.9,2.7-5c1.5-2.2,2.1-5.1,2.1-7.2V35.2c0-4.6-2.8-7.7-7.4-8.5c-8.4-1.3-23.3,6-29.7,22.4l0,0l0,0
		c-2.5,0-4.6,2.1-4.6,4.6C26.1,56.3,28.2,58.3,30.7,58.3z M31.3,49.1L31.3,49.1L31.3,49.1z M33,49.7L33,49.7L33,49.7z M32.6,49.5
		L32.6,49.5L32.6,49.5z M32.2,49.3L32.2,49.3L32.2,49.3z M31.8,49.2C31.7,49.2,31.7,49.2,31.8,49.2C31.7,49.2,31.7,49.2,31.8,49.2z"/>
</svg>