<svg xmlns="http://www.w3.org/2000/svg"><symbol id="advertising" viewBox="0 0 1000 1004"><path d="M798 423l-65-79c-3-3-7-5-12-5-4 0-8 2-11 5l-66 79c-3 4-4 10-2 16 3 5 8 8 14 8h15v183c0 8 7 15 15 15h71c8 0 15-7 15-15V447h15c6 0 11-3 13-8 3-6 2-12-2-16zm-56 9v184h-41V432c0-8-6-14-14-14l34-42 35 42c-8 0-14 6-14 14zM506 541h-71c-8 0-15 7-15 15v74c0 8 7 15 15 15h71c8 0 14-7 14-15v-74c0-8-6-15-14-15zm-15 75h-41v-45h41v45zm140-147h-71c-8 0-14 6-14 14v147c0 8 6 15 14 15h71c8 0 15-7 15-15V483c0-8-7-14-15-14zm-14 147h-42V498h42v118zm323-237c8 0 15-7 15-15v-52h30c8 0 15-7 15-15v-61c0-9-7-15-15-15H679v-34c0-8-7-15-15-15h-99V83c0-46-38-83-83-83H83C37 0 0 37 0 83v837c0 46 37 83 83 83h399c40 0 75-30 81-69h176l26 60c2 6 7 9 13 9h59c5 0 9-2 12-6s3-9 1-14l-93-220h228c8 0 15-7 15-15v-62c0-8-7-14-15-14h-30V423c0-8-7-15-15-15s-15 7-15 15v249H297v-50c0-8-7-14-15-14s-15 6-15 14v50h-30c-8 0-15 6-15 14v62c0 8 7 15 15 15h228l-14 32H92V296c0-8-6-15-14-15-9 0-15 7-15 15v513c0 9 6 15 15 15h361l-64 150H83c-30 0-54-24-54-54V83c0-29 24-54 54-54h399c29 0 53 25 53 54v138h-33v-69c0-8-7-15-15-15H78c-9 0-15 7-15 15v85c0 8 6 15 15 15 8 0 14-7 14-15v-71h380v55H237c-8 0-15 6-15 15v61c0 8 7 15 15 15h30v252c0 8 7 14 15 14s15-6 15-14V312h628v52c0 8 7 15 15 15zM482 974h-16l9-21 8-19h50c-6 23-27 40-51 40zm13-69l14-33h204l14 33H495zm35-83l5-12v33h-13l8-21zm35 21v-80h102l33 80H565zm250 131h-27l-90-211h27l90 211zM251 733v-32h720v32H251zm246 30h27l-90 211h-27l90-211zm75-562h78v20h-78v-20zm-321 81v-32h720v32H251zm31 559c-31 0-57 26-57 57 0 32 26 57 57 57 32 0 57-25 57-57 0-31-25-57-57-57zm0 85c-15 0-27-12-27-28 0-15 12-27 27-27 16 0 28 12 28 27 0 16-12 28-28 28zM237 70h-26c-8 0-15 6-15 15 0 8 7 14 15 14h26c8 0 15-6 15-14 0-9-7-15-15-15zm117 0h-74c-8 0-15 6-15 15 0 8 7 14 15 14h74c8 0 14-6 14-14 0-9-6-15-14-15z"/></symbol><symbol id="design" viewBox="0 0 1000 1000"><path d="M956 54H44C20 54 0 73 0 98v89c0 8 7 15 15 15s14-7 14-15V98c0-8 7-15 15-15h912c8 0 15 7 15 15v393c0 8 6 14 14 14s15-6 15-14V98c0-25-20-44-44-44zm29 481c-8 0-14 6-14 14v80H29V246c0-8-6-15-14-15s-15 7-15 15v503c0 24 20 44 44 44h321l-8 73h-70c-8 0-15 6-15 14v52c0 8 7 14 15 14h426c8 0 15-6 15-14v-52c0-8-7-14-15-14h-70l-8-73h321c24 0 44-20 44-44V549c0-8-7-14-15-14zM698 895v22H302v-22h396zm-312-29l8-73h212l8 73H386zm585-117c0 8-7 14-15 14H44c-8 0-15-6-15-14v-91h942v91zM766 389h-11c-4-59-27-114-66-157-20-22-43-40-68-54h82c6 15 20 25 37 25 22 0 40-18 40-40s-18-40-40-40c-17 0-32 11-37 26H540v-13c0-8-7-14-15-14h-51c-8 0-14 6-14 14v13H296c-5-15-20-26-37-26-22 0-40 18-40 40s18 40 40 40c17 0 31-10 37-25h82c-25 14-48 32-68 54-39 43-62 98-66 157h-10c-8 0-15 6-15 14v51c0 8 7 15 15 15h50c8 0 15-7 15-15v-51c0-8-7-14-15-14h-10c3-51 23-100 58-138 34-37 79-62 128-71v7c0 8 6 15 14 15l-56 94c-4 7-2 16 5 20 7 5 16 2 20-5l42-70v121c-14 6-24 19-24 36 0 21 17 38 39 38 21 0 38-17 38-38 0-17-10-30-24-36V241l108 181-50 83H427l-50-83 35-59c5-7 2-16-5-20s-16-2-20 5l-39 66c-3 5-3 11 0 15l45 76c-8 1-13 7-13 15v64c0 8 6 15 14 15h211c8 0 15-7 15-15v-64c0-8-6-14-14-15l45-76c3-4 3-10 0-15L525 202c8 0 15-7 15-15v-7c49 9 93 34 127 71 35 38 55 87 58 138h-9c-8 0-15 6-15 15v50c0 8 7 15 15 15h50c8 0 15-7 15-15v-50c0-9-7-15-15-15zm-26-237c6 0 11 5 11 11s-5 11-11 11-11-5-11-11 5-11 11-11zm-481 22c-6 0-11-5-11-11s5-11 11-11 11 5 11 11-5 11-11 11zm11 266h-22v-22h22v22zm230-33c-6 0-10-4-10-9 0-6 4-10 10-10 5 0 9 4 9 10 0 5-4 9-9 9zm10-243v8h-21v-21h21v13zM409 570v-35h181v35H409zm343-130h-22v-22h22v22z"/></symbol><symbol id="help" viewBox="0 0 1000 999"><path d="M749 449c-1-4-4-7-7-9l-112-69c-6-3-15-2-19 4-25 31-62 49-101 49-40 0-77-18-101-49-5-6-13-7-19-4l-112 69c-4 2-6 5-7 9s0 8 2 12c54 77 143 123 237 123s182-46 236-123c3-4 4-8 3-12zM510 554c-79 0-154-36-203-98l87-53c30 32 72 50 116 50s85-18 115-50l88 53c-49 62-124 98-203 98zM534 0c-4 0-8 1-11 4-2 3-4 7-4 11v132c0 7 5 13 13 14 64 8 112 63 112 128 0 18-3 36-11 52-3 7 0 15 6 19l112 68c3 2 5 2 8 2h4c4-1 7-4 9-7 21-42 33-88 33-134C805 137 686 10 534 0zm219 395l-88-54c6-16 9-34 9-52 0-75-53-139-126-155V31c129 16 227 126 227 258 0 36-7 73-22 106zM496 4c-3-3-7-4-11-4-152 10-270 137-270 289 0 46 11 93 33 134 2 3 5 6 9 7h4c2 0 5 0 7-2l112-68c7-4 9-12 6-19-7-16-11-34-11-52 0-13 2-26 6-39 2-7-2-16-10-18-7-3-15 2-18 9-5 16-7 32-7 48 0 18 3 36 9 52l-88 54c-15-33-23-70-23-106 0-132 99-242 227-258v103c-33 7-63 25-86 51-5 6-5 15 2 20 6 6 15 5 20-1 21-24 50-39 81-43 7-1 13-7 13-14V15c0-4-2-8-5-11zm277 867c-4-7-13-10-20-6s-13 7-20 11c-86 48-184 102-278 93l-180-16c-8 0-15 5-16 14 0 8 6 15 14 15l180 16c7 1 15 1 22 1 95 0 189-51 273-98 6-3 12-7 19-10 7-4 9-13 6-20zm216-174c-16-21-43-28-67-18 0-9-3-19-9-26-15-21-43-27-65-16l-35 19c0-9-3-17-7-24-14-23-43-31-67-18l-26 14c-1-10-4-20-10-28-15-21-43-27-66-15l-188 98c-21-8-89-30-168-15-81 15-148 64-165 78H15c-8 0-15 6-15 14v194c0 8 7 15 15 15h105l94 8h1c8 0 14-6 15-13 1-8-5-15-13-16l-95-8H29V775h92c4 0 7-1 9-3 1-1 71-59 157-75 84-16 156 15 157 16h1s1 1 2 1h199c14 0 25 11 25 25 0 13-10 24-22 25l-249 32h-2c-6 2-11 8-11 14 0 1 1 2 1 3 1 6 6 11 12 12l106 13c3 0 6 0 9 1h8c1 0 2 1 3 1h9c3 0 6 1 8 1h41c2 0 4 0 6-1h12c3 0 5-1 8-1h1c3 0 6-1 8-1h3c2-1 4-1 6-1h3c2-1 4-1 6-1 1 0 2-1 3-1 2 0 4 0 7-1h1c3-1 6-1 9-2h2c2-1 4-1 6-1 1-1 2-1 3-1 2-1 4-1 6-1 1-1 2-1 3-1 2-1 4-1 6-2h2c3-1 6-2 9-2 0-1 1-1 2-1 2-1 4-1 6-2 1 0 2 0 3-1 2 0 4-1 5-1 1-1 2-1 3-1 2-1 4-2 6-2 1-1 2-1 3-1 2-1 5-2 8-3 0 0 1-1 2-1 2-1 4-1 6-2 1 0 2-1 3-1 2-1 3-2 5-2 1-1 2-1 3-2 2 0 4-1 6-2 1 0 1-1 2-1 3-1 6-2 8-4h1c3-1 5-2 7-3 1-1 2-1 3-2 2 0 3-1 5-2 1-1 2-1 3-2 2-1 4-1 5-2s2-1 3-2c3-1 5-3 8-4l96-54 36-19c11-6 25-3 33 7 5 7 7 15 5 22-2 8-6 14-13 18l-153 83c-7 4-9 13-6 20 4 7 13 10 20 6l153-83c14-8 24-22 28-38 3-16-1-32-10-45zm-381-12h-99l142-74c10-6 22-3 28 6 4 6 6 12 4 19-1 6-5 11-11 14l-64 35zm61 5c-1 0-1-1-2-1h-1c-1-1-1-1-2-1l22-12 67-36c10-5 22-2 28 7 3 5 4 11 2 17-1 6-5 10-10 13l-77 41-1-1v-2c-1 0-1 0-1-1 0 0 0-1-1-1v-1l-1-1c0-1-1-1-1-1 0-1 0-1-1-2v-1c-1 0-1 0-1-1l-1-1-1-1s0-1-1-1c0 0 0-1-1-1 0 0 0-1-1-1 0 0 0-1-1-1v-1c-1 0-1 0-2-1v-1h-2c0-1 0-1-1-1 0-1 0-1-1-1 0 0 0-1-1-1 0 0-1 0-1-1h-1c-1-1-1-1-2-1v-1c-1 0-2 0-3-1zm224-3c-2 6-5 11-11 14l-97 53c-2 2-5 3-7 5-66 35-139 53-213 53-14 0-28-1-43-2l130-17h5c1-1 3-1 4-1 2-1 3-1 4-2h1c1 0 2-1 3-2 2 0 3-1 4-1v-1c1 0 2-1 3-2h1c1-1 2-2 3-2v-1c1-1 2-1 3-2l1-1c1 0 1-1 2-2s2-2 3-4c1-1 2-2 2-3 0 0 1 0 1-1s1-2 2-3c0-1 1-3 2-4 0-1 1-2 1-4 1-1 1-2 1-4 1-2 1-3 1-4l81-43 6-3 76-40c9-5 21-2 27 7 4 5 5 11 4 17z"/></symbol><symbol id="logo" viewBox="0 0 400 250"><path d="M208.1 97.5c1.6 2.2 2.4 4.9 2.4 8 0 4.6-1.8 8.2-5.4 10.8-3.6 2.5-8.7 3.8-15.5 3.8h-27.8V67.2h26.4c6.6 0 11.5 1.3 14.9 3.8s5 5.9 5 10c0 2.5-.6 4.7-1.7 6.6-1.2 2-2.9 3.5-5.1 4.8 3 1.2 5.2 2.8 6.8 5.1zm-29.8-17.9v7.8h7.8c3.6 0 5.4-1.3 5.4-3.9s-1.8-3.9-5.4-3.9h-7.8zm15.5 23.8c0-2.8-1.8-4.2-5.5-4.2h-10v8.3h10c3.6.1 5.5-1.3 5.5-4.1zM236.8 106.7h-4.5V120h-16.6V67.2h23.8c4.6 0 8.5.8 11.9 2.4s6 3.9 7.8 6.9 2.7 6.5 2.7 10.6c0 3.8-.8 7.1-2.4 9.9s-3.9 5.1-6.9 6.7L263 120h-17.8l-8.4-13.3zm6.6-24.1c-1.1-1.1-2.8-1.6-5.1-1.6h-6.1v12.4h6.1c2.3 0 3.9-.5 5.1-1.6 1.1-1.1 1.7-2.6 1.7-4.6 0-2-.6-3.6-1.7-4.6z"/><path d="M301 110.8h-18.7L279 120h-17l21.6-52.8H300l21.6 52.8h-17.2l-3.4-9.2zM296.4 98l-4.8-13.3-4.8 13.3h9.6zM323.4 67.2H340V120h-16.6V67.2zM395.9 67.2V120h-13.7l-18.7-24v24h-16.2V67.2H361l18.7 24v-24h16.2zM124.2 132l-20.8 65H79.9l-10.5-34.7L58.3 197H34.8L14 132h22.6l11.3 37 12-37H80l11.3 37.4 12-37.4h20.9zM142.7 194.1c-5.6-2.9-9.9-7-13.1-12.1-3.2-5.2-4.7-11-4.7-17.5s1.6-12.3 4.7-17.5c3.2-5.2 7.5-9.2 13.1-12.1 5.6-2.9 11.9-4.4 18.9-4.4s13.3 1.5 18.9 4.4c5.6 2.9 9.9 7 13.1 12.1 3.2 5.2 4.7 11 4.7 17.5s-1.6 12.3-4.7 17.5c-3.2 5.2-7.5 9.2-13.1 12.1-5.6 2.9-11.9 4.4-18.9 4.4-7.1 0-13.4-1.5-18.9-4.4zm26.2-15.4c2.2-1.3 3.9-3.2 5.2-5.7 1.3-2.4 2-5.3 2-8.6s-.6-6.1-2-8.6c-1.3-2.4-3.1-4.3-5.2-5.7-2.2-1.3-4.7-2-7.4-2s-5.2.7-7.4 2-3.9 3.2-5.2 5.7c-1.3 2.4-2 5.3-2 8.6s.7 6.1 2 8.6c1.3 2.4 3.1 4.3 5.2 5.7 2.2 1.3 4.7 2 7.4 2s5.2-.6 7.4-2zM233.4 180.6h-5.9V197h-21.9v-65h31.3c6 0 11.2 1 15.7 3s7.9 4.8 10.3 8.5 3.6 8.1 3.6 13c0 4.6-1.1 8.7-3.2 12.2s-5.1 6.2-9.1 8.3l13.7 20.1h-23.4l-11.1-16.5zm8.8-29.7c-1.5-1.3-3.7-2-6.7-2h-8v15.2h8c3 0 5.2-.7 6.7-2s2.2-3.2 2.2-5.6c0-2.4-.7-4.3-2.2-5.6zM300.6 175.4l-4.9 5.5V197h-21.6v-65h21.6v23.6l21.4-23.6H341l-26 28.6 27.3 36.4h-25.4l-16.3-21.6z"/><path d="M353.4 196.7c-5.1-1.2-9.3-2.8-12.6-4.9l7.1-16c3.1 1.8 6.6 3.2 10.4 4.3s7.5 1.6 11.1 1.6c3 0 5.2-.3 6.5-.9 1.3-.6 2-1.5 2-2.6 0-1.4-.9-2.4-2.6-3.1-1.7-.7-4.5-1.4-8.4-2.2-5-1.1-9.2-2.2-12.5-3.4s-6.3-3.2-8.7-5.9c-2.5-2.8-3.7-6.5-3.7-11.2 0-4.1 1.1-7.8 3.4-11.1s5.7-6 10.3-7.9c4.6-1.9 10.1-2.9 16.6-2.9 4.5 0 8.8.5 13.1 1.4 4.3 1 8.1 2.4 11.4 4.2l-6.6 15.9c-6.4-3.2-12.4-4.8-18.1-4.8-5.6 0-8.5 1.4-8.5 4.1 0 1.3.8 2.3 2.5 2.9 1.7.7 4.4 1.3 8.3 2.1 5 .9 9.1 2 12.5 3.2s6.4 3.2 8.9 5.9 3.8 6.4 3.8 11.1c0 4.1-1.1 7.8-3.4 11.1s-5.7 5.9-10.3 7.9c-4.6 2-10.1 2.9-16.6 2.9-5.5.1-10.8-.5-15.9-1.7zM41.2 234.1h54.6c1.3-.9 2.2-2.4 2.2-4.1v-1.9c0-2.7-2.2-4.9-4.9-4.9 2.7 0 4.9-2.2 4.9-4.9v-1.5c0-2.7-2.2-4.9-4.9-4.9 2.7 0 4.9-2.2 4.9-4.9v-1.5c0-2.7-2.2-4.9-4.9-4.9H43.8c-2.7 0-4.9 2.2-4.9 4.9v1.5c0 2.7 2.2 4.9 4.9 4.9-2.7 0-4.9 2.2-4.9 4.9v1.5c0 2.7 2.2 4.9 4.9 4.9-2.7 0-4.9 2.2-4.9 4.9v1.9c0 1.7.9 3.2 2.3 4.1zm9.8-26.8h35c2 0 3.7 1.6 3.7 3.7 0 2-1.6 3.7-3.7 3.7H51c-2 0-3.7-1.6-3.7-3.7s1.7-3.7 3.7-3.7zm0 12.4h24.1c2 0 3.7 1.6 3.7 3.7s-1.6 3.7-3.7 3.7H51c-2 0-3.7-1.6-3.7-3.7s1.7-3.7 3.7-3.7zM50.3 237.6c2.8 4.9 9.9 8.4 18.2 8.4s15.4-3.5 18.2-8.4H50.3zM136.8 68.1C133.9 15 86.8 3.4 68.9 3.4 51 3.4 4 15 1.1 68.1v.1c0 19.5 8.9 34.6 15.3 45.6 3.6 6.1 6.7 11.4 6.7 14.8l5.3.1c.1-4.9-3.2-10.5-7.4-17.6-6.5-11-14.6-24.8-14.6-42.8 2.7-48.9 46-59.6 62.5-59.6s59.8 10.7 62.5 59.6c0 18-8.1 31.8-14.6 42.9-4.2 7.1-7.4 12.7-7.4 17.6l5.3-.1c0-3.4 3.1-8.7 6.7-14.8 6.5-11 15.4-26.1 15.3-45.6l.1-.2z"/><path d="M81.5 116.1c-2.5 0-4.6 2.1-4.6 4.6s2.1 4.6 4.6 4.6c2.1 0 3.8-1.3 4.4-3.2 4.4-1.6 10.1-5.9 16.5-15.7 4.8-7.2 3.1-11.5-1.5-16.5-5-5.5-10.4-8.4-14-10.1-1.7-.8-4.1-1.7-6.1-.4-2.1 1.3-2.3 4.2-2.3 6.2v11.5c0 1 .8 1.8 1.8 1.8s1.8-.8 1.8-1.8V85.7c0-2.2.4-3.1.7-3.2.1 0 .6-.3 2.6.6 3.3 1.6 8.3 4.3 12.9 9.3 3.7 4.1 4.7 6.6 1.1 12.1-4.7 7.1-9.6 12-13.9 13.9-.9-1.4-2.4-2.3-4-2.3zm4.5 5v-.4c.1.2.1.3 0 .4zm-.1.8v-.2.2zm.1-.3v-.2.2zm-.1-2c0-.1 0-.1 0 0 0-.1 0-.1 0 0zm.1.6c0-.1 0-.1 0 0z"/><path d="M71 75.7v37c0 3.6 1.8 6.8 4.6 8.7v-.6c0-1.2.4-2.3 1-3.3-1.3-1.4-2-3.2-2-4.9v-37c0-1.7 0-5.7.7-6.3 0 0 .3 0 .9.3 3.8 1.8 11.6 6 16.8 10.2 1.4 1.1 2.6 2.1 3.8 3 5.1 4.1 7.8 6.4 10.6 5.3 2.3-.9 3-3.7 3.4-6.4 1.5-9.1 1.5-16-.1-23.1-.1-.4-.2-.9-.3-1.3 1-.8 1.7-2.1 1.7-3.6 0-2.5-2.1-4.6-4.6-4.6s-4.6 2.1-4.6 4.6c0 2.4 1.8 4.3 4.1 4.6 0 .1.1.2.1.3 1.7 6.9 1.7 13.5.2 22.6-.5 3.3-1.2 3.7-1.2 3.7-.9.2-4.3-2.5-7-4.8-1.1-.9-2.4-2-3.8-3-5.2-4-12.6-8.2-17.5-10.6-1.7-.8-3.2-.9-4.4-.1-2.4 1.5-2.4 5.4-2.4 9.3zm39.1-18.2c.1-.1.2-.1.3-.2-.1.1-.2.2-.3.2zm-1.5.7c.1 0 .2 0 .2-.1-.1.1-.2.1-.2.1zm.4-.1c.1 0 .1-.1.2-.1-.1 0-.1.1-.2.1zm.4-.2c.1 0 .1-.1.2-.1-.1.1-.1.1-.2.1zm.4-.2c.1 0 .1-.1.2-.1-.1.1-.2.1-.2.1zm-1.8.6h-.4.4zm.1 0h.3-.3zM69 66.2c2.3 0 4.2-1.7 4.5-3.9 1.6-.6 3.1-1.5 4.4-2.8.4-.4.6-.9.5-1.4 0-.5-.3-1-.7-1.3-.6-.4-1-.7-1.5-1-2.3-1.5-2.3-1.5-2.3-6.4V35.2c0-2.8 1.4-4.5 4.2-5 9.9-1.7 20.7 9.1 25.5 19 .9-.8 2.1-1.2 3.4-1.3-3-6.5-7.5-12.1-13-16.1-4.8-3.4-9.9-5.3-14.3-5.3-.8 0-1.6.1-2.3.2-4.5.8-7.2 4-7.2 8.5v14.2c0 5.9.5 7 3.2 8.9-.3.2-.7.4-1 .5-.5-1.1-1.9-1.8-3.4-1.8-2.5 0-4.6 2.1-4.6 4.6s2.1 4.6 4.6 4.6zm4.6-4.2v-.4-.4.8zm0-1.2v0zm-.2-.6c0-.1 0-.1 0 0zm.1.4c0-.1 0-.1-.1-.2.1.1.1.1.1.2zM29.4 88.3c.9.6 2.9 1.3 5.5-.9l10.7-8.8c13.1-9.7 16.5-9.2 17.2-8.8.9.5.9 3 .9 4.9v38c0 1.5-.4 3.2-1.3 4.4-.8-.6-1.7-.9-2.7-.9-2.5 0-4.6 2.1-4.6 4.6s2.1 4.6 4.6 4.6 4.6-2.1 4.6-4.6v-.4c1.9-1.8 3-4.5 3-7.7V75.6v-.9c0-2.9.1-6.6-2.8-8.1-3.6-1.8-9.8.9-21 9.2l-.1.1-10.8 8.8c-.7.6-1.2.7-1.2.7-.4-.1-2-2.7-1.6-11.8.2-4.5.8-9.5 1.7-14-.3 0-.5.1-.8.1-1 0-1.9-.2-2.7-.7-2.3 11.2-3.2 26.3 1.4 29.3z"/><path d="M35 104.3c8 10.3 14.2 15.2 18.9 17.1v-.6c0-1.1.3-2.1.8-3-4.6-2.2-10.5-7.6-16.9-15.7-.4-.5-.6-1.3-.4-2.2.5-3.8 5.1-9.1 12.2-14.3 5.3-3.8 6.6-3.3 6.6-3.3.5.4.3 2.8.3 3.7v8.7c-1.7.7-2.8 2.3-2.8 4.2 0 2.5 2.1 4.6 4.6 4.6s4.6-2.1 4.6-4.6c0-1.9-1.2-3.5-2.8-4.2v-7.2-1.3c.1-2.4.3-5.7-2.2-7.1-2.2-1.2-5.4-.1-10.4 3.5-8.1 5.9-13 11.8-13.6 16.7-.3 2 .1 3.7 1.1 5zM30.7 58.3c2.5 0 4.6-2.1 4.6-4.6 0-1.2-.5-2.4-1.3-3.2 5.7-14.2 18.6-21.4 26-20.3 2.9.5 4.4 2.1 4.4 4.9v14.3c0 2.4-1.1 6.3-3.5 6.9-.6.1-1.1.6-1.3 1.3-.2.6 0 1.3.5 1.8 1 1 2.1 1.8 3.2 2.4v-.1c0-2.1 1.1-3.9 2.7-5 1.5-2.2 2.1-5.1 2.1-7.2V35.2c0-4.6-2.8-7.7-7.4-8.5-8.4-1.3-23.3 6-29.7 22.4-2.5 0-4.6 2.1-4.6 4.6-.3 2.6 1.8 4.6 4.3 4.6zm.6-9.2zm1.7.6zm-.4-.2zm-.4-.2zm-.4-.1c-.1 0-.1 0 0 0-.1 0-.1 0 0 0z"/></symbol><symbol id="triangle" viewBox="0 0 230 170"><path fill="none" stroke="#fff" stroke-width="12" d="M115 161L13 10h204z"/></symbol></svg>