<?xml version="1.0" standalone="no"?>
<!DOCTYPE svg PUBLIC "-//W3C//DTD SVG 20010904//EN"
 "http://www.w3.org/TR/2001/REC-SVG-20010904/DTD/svg10.dtd">
<svg version="1.0" xmlns="http://www.w3.org/2000/svg"
 width="512.000000pt" height="512.000000pt" viewBox="0 0 512.000000 512.000000"
 preserveAspectRatio="xMidYMid meet">
<metadata>
Created by potrace 1.11, written by Peter Selinger 2001-2013
</metadata>
<g transform="translate(0.000000,512.000000) scale(0.100000,-0.100000)"
fill="#000000" stroke="none">
<path d="M2360 5104 c-733 -121 -1214 -642 -1235 -1339 -4 -132 15 -293 44
-367 6 -16 8 -28 6 -28 -3 0 11 -44 31 -97 36 -100 127 -294 186 -395 108
-185 158 -280 176 -331 10 -31 22 -60 26 -64 3 -3 29 -7 57 -7 l50 -2 -6 41
c-14 90 -43 149 -212 430 -41 70 -146 294 -173 370 -96 277 -98 537 -7 815
105 321 336 581 647 728 142 67 342 128 446 136 23 2 46 6 50 8 26 14 256 -1
354 -24 25 -5 53 -11 64 -14 152 -31 392 -145 531 -252 103 -79 214 -200 283
-307 71 -111 161 -357 176 -481 3 -27 8 -62 11 -79 2 -16 5 -66 5 -110 4 -259
-88 -523 -312 -902 -99 -166 -148 -279 -148 -340 0 -19 5 -21 49 -19 55 2 63
6 68 39 5 35 74 171 152 302 127 213 245 477 266 596 3 18 8 36 11 40 2 4 7
27 9 51 3 24 9 66 13 93 9 58 8 226 -2 305 -10 77 -54 254 -81 325 -65 175
-161 322 -299 461 -219 219 -504 358 -861 421 -64 11 -304 9 -375 -3z"/>
<path d="M2768 4634 c-2 -1 -16 -4 -33 -7 -68 -9 -115 -44 -140 -104 -12 -28
-15 -82 -15 -250 0 -220 6 -261 43 -292 9 -7 14 -17 12 -22 -3 -4 -15 1 -27
13 -28 28 -94 20 -125 -17 -26 -29 -31 -89 -10 -116 20 -26 61 -48 82 -44 11
2 25 4 32 4 17 1 63 49 63 65 0 8 8 17 18 20 85 33 107 89 47 126 -19 12 -40
30 -45 40 -6 11 -10 109 -10 228 0 196 1 211 21 235 44 56 151 56 268 0 60
-29 94 -55 166 -127 51 -52 107 -120 129 -159 21 -37 42 -67 46 -67 4 0 22 6
39 13 l31 13 -41 69 c-129 222 -310 352 -526 379 -12 2 -24 2 -25 0z"/>
<path d="M2237 4619 c-64 -15 -178 -75 -244 -129 -80 -65 -148 -149 -202 -250
-34 -63 -50 -83 -76 -94 -36 -15 -51 -36 -59 -81 -14 -79 83 -135 147 -85 38
30 47 68 30 119 -14 43 -14 43 29 119 110 196 331 348 486 335 55 -4 88 -26
101 -66 5 -18 9 -113 7 -212 -2 -202 -10 -233 -71 -272 -40 -26 -38 -50 7 -88
38 -32 44 -31 52 6 3 17 21 49 41 71 19 23 38 59 43 82 5 23 8 131 8 242 l-1
201 -29 38 c-38 50 -96 75 -171 74 -33 -1 -77 -5 -98 -10z"/>
<path d="M3323 4144 c-71 -35 -67 -143 7 -174 31 -13 35 -22 46 -95 20 -137
-5 -451 -37 -471 -13 -7 -36 8 -145 97 -155 125 -431 293 -494 300 -49 6 -86
-30 -98 -95 -11 -65 -5 -920 6 -962 10 -34 69 -114 85 -114 3 0 5 12 5 26 0
14 4 30 10 36 8 8 5 21 -11 47 -22 36 -22 38 -22 496 0 253 4 468 8 478 6 17
16 14 101 -31 118 -62 230 -137 373 -249 125 -99 153 -113 200 -101 56 15 79
73 98 244 13 114 0 352 -21 385 -3 5 2 19 10 31 60 92 -25 199 -121 152z"/>
<path d="M1679 3922 c-1 -23 -4 -49 -13 -98 -10 -56 -15 -122 -16 -229 -5
-245 75 -341 198 -238 142 119 272 219 335 260 88 56 185 103 213 103 46 0 47
-4 47 -485 0 -482 -4 -526 -43 -505 -67 36 -152 -32 -135 -108 20 -92 144
-102 181 -15 9 21 20 45 25 53 45 75 44 60 46 563 3 537 3 535 -62 563 -46 19
-91 12 -175 -27 -90 -42 -293 -179 -340 -229 -3 -3 -36 -30 -75 -60 -38 -30
-76 -60 -83 -67 -18 -17 -19 -17 -32 7 -14 26 -22 86 -22 170 -1 66 10 212 17
240 2 8 6 38 10 65 l6 50 -41 2 c-32 2 -40 -1 -41 -15z"/>
<path d="M2181 3500 c-125 -69 -285 -216 -334 -308 -35 -65 -45 -138 -24 -178
17 -33 139 -177 196 -231 61 -59 193 -153 213 -153 3 0 5 6 5 13 0 6 4 23 7
37 6 23 1 30 -46 60 -119 77 -308 284 -308 337 0 43 58 133 131 203 79 75 197
158 238 166 l31 7 0 -127 c0 -124 -1 -128 -26 -151 -32 -30 -40 -75 -19 -114
19 -37 43 -51 89 -51 87 0 124 117 54 171 -19 15 -21 26 -19 130 0 63 -2 128
-5 146 -15 79 -87 96 -183 43z"/>
<path d="M2789 3499 c-16 -17 -30 -41 -30 -53 -1 -11 -2 -86 -3 -166 -1 -126
1 -147 16 -162 47 -47 59 -14 62 166 1 85 5 158 9 162 19 19 161 -57 256 -136
80 -67 128 -128 139 -177 11 -50 -11 -106 -79 -200 -49 -68 -182 -202 -221
-222 -24 -12 -29 -11 -56 8 -57 40 -127 22 -152 -38 -26 -64 20 -131 91 -131
35 0 47 6 76 36 18 20 52 46 74 57 83 44 176 138 272 275 76 107 95 197 58
278 -56 123 -338 334 -447 334 -27 0 -43 -7 -65 -31z"/>
<path d="M1397 2403 c-2 -2 18 -70 45 -151 26 -81 48 -153 48 -160 0 -7 4 -20
10 -30 8 -15 43 -123 205 -632 18 -58 54 -170 80 -251 l48 -145 248 0 249 0
24 76 c14 41 61 190 106 330 44 140 87 269 94 285 l13 30 13 -45 c7 -25 25
-85 41 -135 15 -49 42 -137 59 -195 17 -58 48 -159 69 -225 l37 -120 248 0
249 0 23 70 c33 102 92 287 179 560 42 132 83 258 90 280 21 61 145 451 145
456 0 3 -99 5 -220 6 l-220 0 -91 -281 c-49 -155 -104 -324 -120 -376 -17 -52
-33 -102 -36 -110 -5 -16 -20 20 -52 130 -11 36 -42 142 -71 235 -28 94 -55
184 -60 200 -4 17 -20 68 -34 114 -14 47 -26 85 -26 86 0 1 -95 1 -212 1
l-212 -1 -17 -45 c-10 -25 -66 -193 -125 -375 -97 -301 -124 -374 -124 -335 0
7 -13 56 -30 109 -16 53 -68 220 -114 371 l-84 275 -236 1 c-130 0 -238 -1
-239 -3z"/>
<path d="M2117 964 c-3 -3 -31 -6 -63 -5 -68 0 -108 -19 -126 -63 -23 -58 1
-148 45 -162 16 -5 14 -10 -17 -40 -34 -33 -41 -54 -37 -109 3 -37 22 -72 46
-85 l23 -12 -33 -34 c-19 -18 -35 -46 -37 -61 -5 -44 8 -102 27 -123 18 -19
34 -20 591 -20 315 0 580 3 589 6 42 17 59 121 28 174 -9 16 -28 34 -42 40
-25 12 -25 13 -6 20 38 15 58 48 63 105 4 52 3 56 -31 90 l-35 35 34 34 c30
30 34 40 34 84 0 43 -5 56 -32 85 -32 33 -35 34 -118 36 -47 1 -92 2 -100 2
-70 -2 -144 0 -151 5 -5 3 -9 0 -9 -6 0 -6 -4 -9 -9 -6 -5 4 -56 6 -113 6 -57
0 -139 0 -183 0 -44 0 -118 0 -165 -1 -113 0 -152 1 -160 6 -4 3 -10 2 -13 -1z
m820 -153 c22 -2 53 -44 53 -72 0 -15 -9 -37 -19 -50 l-19 -24 -403 -1 -402
-2 -24 24 c-40 40 -22 118 30 126 21 3 758 2 784 -1z m-240 -260 c31 -1 63
-39 63 -73 0 -17 -10 -39 -25 -53 l-24 -25 -276 0 c-170 0 -284 4 -296 10 -10
6 -25 23 -33 38 -20 39 1 88 43 99 25 6 446 9 548 4z"/>
<path d="M2170 160 c5 -9 25 -31 45 -49 136 -119 399 -145 575 -56 53 27 115
77 130 106 10 17 -7 18 -375 17 -365 0 -384 -1 -375 -18z"/>
</g>
</svg>
