<?xml version="1.0" encoding="UTF-8"?>
<!DOCTYPE svg PUBLIC "-//W3C//DTD SVG 1.1//EN" "http://www.w3.org/Graphics/SVG/1.1/DTD/svg11.dtd">
<!-- Creator: CorelDRAW X6 -->
<svg xmlns="http://www.w3.org/2000/svg" xml:space="preserve" width="100px" height="100px" version="1.1" shape-rendering="geometricPrecision" text-rendering="geometricPrecision" image-rendering="optimizeQuality" fill-rule="evenodd" clip-rule="evenodd"
viewBox="0 0 1000 999"
 xmlns:xlink="http://www.w3.org/1999/xlink">
 <g id="Слой_x0020_1">
  <metadata id="CorelCorpID_0Corel-Layer"/>
  <path fill="black" d="M749 449c-1,-4 -4,-7 -7,-9l-112 -69c-6,-3 -15,-2 -19,4 -25,31 -62,49 -101,49 -40,0 -77,-18 -101,-49 -5,-6 -13,-7 -19,-4l-112 69c-4,2 -6,5 -7,9 -1,4 0,8 2,12 54,77 143,123 237,123 94,0 182,-46 236,-123 3,-4 4,-8 3,-12zm-239 105c-79,0 -154,-36 -203,-98l87 -53c30,32 72,50 116,50 44,0 85,-18 115,-50l88 53c-49,62 -124,98 -203,98zm24 -554c-4,0 -8,1 -11,4 -2,3 -4,7 -4,11l0 132c0,7 5,13 13,14 64,8 112,63 112,128 0,18 -3,36 -11,52 -3,7 0,15 6,19l112 68c3,2 5,2 8,2 1,0 3,0 4,0 4,-1 7,-4 9,-7 21,-42 33,-88 33,-134 0,-152 -119,-279 -271,-289zm219 395l-88 -54c6,-16 9,-34 9,-52 0,-75 -53,-139 -126,-155l0 -103c129,16 227,126 227,258 0,36 -7,73 -22,106zm-257 -391c-3,-3 -7,-4 -11,-4 -152,10 -270,137 -270,289 0,46 11,93 33,134 2,3 5,6 9,7 1,0 2,0 4,0 2,0 5,0 7,-2l112 -68c7,-4 9,-12 6,-19 -7,-16 -11,-34 -11,-52 0,-13 2,-26 6,-39 2,-7 -2,-16 -10,-18 -7,-3 -15,2 -18,9 -5,16 -7,32 -7,48 0,18 3,36 9,52l-88 54c-15,-33 -23,-70 -23,-106 0,-132 99,-242 227,-258l0 103c-33,7 -63,25 -86,51 -5,6 -5,15 2,20 6,6 15,5 20,-1 21,-24 50,-39 81,-43 7,-1 13,-7 13,-14l0 -132c0,-4 -2,-8 -5,-11zm277 867c-4,-7 -13,-10 -20,-6 -7,4 -13,7 -20,11 -86,48 -184,102 -278,93l-180 -16c-8,0 -15,5 -16,14 0,8 6,15 14,15l180 16c7,1 15,1 22,1 95,0 189,-51 273,-98 6,-3 12,-7 19,-10 7,-4 9,-13 6,-20zm216 -174c-16,-21 -43,-28 -67,-18 0,-9 -3,-19 -9,-26 -15,-21 -43,-27 -65,-16l-35 19c0,-9 -3,-17 -7,-24 -14,-23 -43,-31 -67,-18l-26 14c-1,-10 -4,-20 -10,-28 -15,-21 -43,-27 -66,-15l-188 98c-21,-8 -89,-30 -168,-15 -81,15 -148,64 -165,78l-101 0c-8,0 -15,6 -15,14l0 194c0,8 7,15 15,15l105 0 94 8c0,0 1,0 1,0 8,0 14,-6 15,-13 1,-8 -5,-15 -13,-16l-95 -8c0,0 -1,0 -1,0l-92 0 0 -165 92 0c4,0 7,-1 9,-3 1,-1 71,-59 157,-75 84,-16 156,15 157,16 0,0 0,0 0,0 1,0 1,0 1,0 0,0 1,1 2,1 0,0 0,0 0,0 1,0 2,0 3,0l196 0c14,0 25,11 25,25 0,13 -10,24 -22,25l-249 32c-1,0 -2,0 -2,0 -6,2 -11,8 -11,14 0,1 1,2 1,3 1,6 6,11 12,12l106 13c3,0 6,0 9,1 0,0 1,0 2,0 2,0 4,0 6,0 1,0 2,1 3,1 3,0 5,0 7,0 1,0 1,0 2,0 3,0 6,1 8,1 1,0 2,0 3,0 2,0 4,0 6,0 1,0 2,0 3,0 2,0 4,0 6,0 1,0 2,0 3,0 0,0 0,0 1,0 2,0 5,0 8,0 0,0 1,0 1,0 3,0 5,0 7,0 1,0 2,0 3,0 2,0 4,0 6,-1 1,0 2,0 3,0 2,0 4,0 6,0 1,0 2,0 3,0 3,0 5,-1 8,-1 0,0 1,0 1,0 3,0 6,-1 8,-1 1,0 2,0 3,0 2,-1 4,-1 6,-1 1,0 2,0 3,0 2,-1 4,-1 6,-1 1,0 2,-1 3,-1 2,0 4,0 7,-1 0,0 1,0 1,0 3,-1 6,-1 9,-2 1,0 2,0 2,0 2,-1 4,-1 6,-1 1,-1 2,-1 3,-1 2,-1 4,-1 6,-1 1,-1 2,-1 3,-1 2,-1 4,-1 6,-2 1,0 2,0 2,0 3,-1 6,-2 9,-2 0,-1 1,-1 2,-1 2,-1 4,-1 6,-2 1,0 2,0 3,-1 2,0 4,-1 5,-1 1,-1 2,-1 3,-1 2,-1 4,-2 6,-2 1,-1 2,-1 3,-1 2,-1 5,-2 8,-3 0,0 1,-1 2,-1 2,-1 4,-1 6,-2 1,0 2,-1 3,-1 2,-1 3,-2 5,-2 1,-1 2,-1 3,-2 2,0 4,-1 6,-2 1,0 1,-1 2,-1 3,-1 6,-2 8,-4 1,0 1,0 1,0 3,-1 5,-2 7,-3 1,-1 2,-1 3,-2 2,0 3,-1 5,-2 1,-1 2,-1 3,-2 2,-1 4,-1 5,-2 1,-1 2,-1 3,-2 3,-1 5,-3 8,-4l96 -54 0 0 36 -19c11,-6 25,-3 33,7 5,7 7,15 5,22 -2,8 -6,14 -13,18l-153 83c-7,4 -9,13 -6,20 4,7 13,10 20,6l153 -83c14,-8 24,-22 28,-38 3,-16 -1,-32 -10,-45zm-381 -12l-99 0 142 -74c10,-6 22,-3 28,6 4,6 6,12 4,19 -1,6 -5,11 -11,14l-64 35zm61 5c0,0 0,0 0,0 -1,0 -1,-1 -2,-1 -1,0 -1,0 -1,0 -1,-1 -1,-1 -2,-1 0,0 0,0 0,0l22 -12c0,0 0,0 0,0l67 -36c10,-5 22,-2 28,7 3,5 4,11 2,17 -1,6 -5,10 -10,13l-77 41c-1,-1 -1,-1 -1,-1 0,-1 0,-1 0,-2 -1,0 -1,0 -1,-1 0,0 0,-1 -1,-1 0,0 0,-1 0,-1 -1,-1 -1,-1 -1,-1 0,-1 -1,-1 -1,-1 0,-1 0,-1 -1,-2 0,0 0,0 0,-1 -1,0 -1,0 -1,-1 0,0 -1,-1 -1,-1 0,0 -1,-1 -1,-1 0,0 0,-1 -1,-1 0,0 0,-1 -1,-1 0,0 0,-1 -1,-1 0,0 0,-1 -1,-1 0,0 0,0 0,-1 -1,0 -1,0 -2,-1 0,0 0,0 0,-1 -1,0 -1,0 -2,0 0,-1 0,-1 -1,-1 0,-1 0,-1 -1,-1 0,0 0,-1 -1,-1 0,0 -1,0 -1,-1 0,0 -1,0 -1,0 -1,-1 -1,-1 -2,-1 0,0 0,0 0,-1 -1,0 -2,0 -3,-1zm224 -3c-2,6 -5,11 -11,14l-97 53c-2,2 -5,3 -7,5 -66,35 -139,53 -213,53 -14,0 -28,-1 -43,-2l130 -17c2,0 3,0 5,0 0,0 0,0 0,0 1,-1 3,-1 4,-1 0,0 0,0 0,0 2,-1 3,-1 4,-2 0,0 0,0 1,0 1,0 2,-1 3,-2 0,0 0,0 0,0 2,0 3,-1 4,-1 0,-1 0,-1 0,-1 1,0 2,-1 3,-2 1,0 1,0 1,0 1,-1 2,-2 3,-2 0,0 0,-1 0,-1 1,-1 2,-1 3,-2 0,0 0,0 1,-1 1,0 1,-1 2,-2 0,0 0,0 0,0 1,-1 2,-2 3,-4 0,0 0,0 0,0 1,-1 2,-2 2,-3 0,0 1,0 1,-1 0,-1 1,-2 2,-3 0,0 0,0 0,0 0,-1 1,-3 2,-4 0,0 0,0 0,0 0,-1 1,-2 1,-4 0,0 0,0 0,0 1,-1 1,-2 1,-4 0,0 0,0 0,0 1,-2 1,-3 1,-4 0,0 0,0 0,0l81 -43 6 -3 76 -40c9,-5 21,-2 27,7 4,5 5,11 4,17z"/>
 </g>
</svg>
